<mxfile host="app.diagrams.net" modified="2022-11-04T02:56:59.374Z" agent="5.0 (Windows NT 6.1; Win64; x64) AppleWebKit/537.36 (KHTML, like Gecko) Chrome/107.0.0.0 Safari/537.36" etag="sV9SQYC7JxqgUQenn3Kx" version="20.5.1" type="github">
  <diagram id="kgpKYQtTHZ0yAKxKKP6v" name="Page-1">
    <mxGraphModel dx="1108" dy="450" grid="1" gridSize="10" guides="1" tooltips="1" connect="1" arrows="1" fold="1" page="1" pageScale="1" pageWidth="850" pageHeight="1100" math="0" shadow="0">
      <root>
        <mxCell id="0" />
        <mxCell id="1" parent="0" />
        <mxCell id="3nuBFxr9cyL0pnOWT2aG-1" value="手机端" style="shape=umlLifeline;perimeter=lifelinePerimeter;container=1;collapsible=0;recursiveResize=0;rounded=0;shadow=0;strokeWidth=1;" parent="1" vertex="1">
          <mxGeometry x="120" y="80" width="100" height="620" as="geometry" />
        </mxCell>
        <mxCell id="3nuBFxr9cyL0pnOWT2aG-2" value="" style="points=[];perimeter=orthogonalPerimeter;rounded=0;shadow=0;strokeWidth=1;" parent="3nuBFxr9cyL0pnOWT2aG-1" vertex="1">
          <mxGeometry x="45" y="70" width="10" height="70" as="geometry" />
        </mxCell>
        <mxCell id="3nuBFxr9cyL0pnOWT2aG-3" value="获取模板信息" style="verticalAlign=bottom;startArrow=oval;endArrow=block;startSize=8;shadow=0;strokeWidth=1;" parent="3nuBFxr9cyL0pnOWT2aG-1" target="3nuBFxr9cyL0pnOWT2aG-2" edge="1">
          <mxGeometry relative="1" as="geometry">
            <mxPoint x="-60" y="70" as="sourcePoint" />
          </mxGeometry>
        </mxCell>
        <mxCell id="Nc4_Fv2jFnoJjN1I8ZOP-2" value="" style="html=1;points=[];perimeter=orthogonalPerimeter;" vertex="1" parent="3nuBFxr9cyL0pnOWT2aG-1">
          <mxGeometry x="45" y="180" width="10" height="80" as="geometry" />
        </mxCell>
        <mxCell id="3nuBFxr9cyL0pnOWT2aG-5" value="serverd端" style="shape=umlLifeline;perimeter=lifelinePerimeter;container=1;collapsible=0;recursiveResize=0;rounded=0;shadow=0;strokeWidth=1;" parent="1" vertex="1">
          <mxGeometry x="307" y="80" width="100" height="810" as="geometry" />
        </mxCell>
        <mxCell id="3nuBFxr9cyL0pnOWT2aG-6" value="" style="points=[];perimeter=orthogonalPerimeter;rounded=0;shadow=0;strokeWidth=1;" parent="3nuBFxr9cyL0pnOWT2aG-5" vertex="1">
          <mxGeometry x="45" y="80" width="10" height="50" as="geometry" />
        </mxCell>
        <mxCell id="Nc4_Fv2jFnoJjN1I8ZOP-3" value="" style="html=1;points=[];perimeter=orthogonalPerimeter;" vertex="1" parent="3nuBFxr9cyL0pnOWT2aG-5">
          <mxGeometry x="45" y="190" width="10" height="80" as="geometry" />
        </mxCell>
        <mxCell id="3nuBFxr9cyL0pnOWT2aG-8" value="查询模板玩法&#xa;MATTING+PAG&#xa;识别模板为新玩法" style="verticalAlign=bottom;endArrow=block;entryX=0;entryY=0;shadow=0;strokeWidth=1;" parent="1" source="3nuBFxr9cyL0pnOWT2aG-2" target="3nuBFxr9cyL0pnOWT2aG-6" edge="1">
          <mxGeometry relative="1" as="geometry">
            <mxPoint x="275" y="160" as="sourcePoint" />
          </mxGeometry>
        </mxCell>
        <mxCell id="Nc4_Fv2jFnoJjN1I8ZOP-1" value="animate" style="shape=umlLifeline;perimeter=lifelinePerimeter;whiteSpace=wrap;html=1;container=1;collapsible=0;recursiveResize=0;outlineConnect=0;" vertex="1" parent="1">
          <mxGeometry x="490" y="80" width="100" height="780" as="geometry" />
        </mxCell>
        <mxCell id="Nc4_Fv2jFnoJjN1I8ZOP-5" value="" style="html=1;points=[];perimeter=orthogonalPerimeter;" vertex="1" parent="Nc4_Fv2jFnoJjN1I8ZOP-1">
          <mxGeometry x="45" y="210" width="10" height="260" as="geometry" />
        </mxCell>
        <mxCell id="Nc4_Fv2jFnoJjN1I8ZOP-4" value="发起新玩法的合成" style="html=1;verticalAlign=bottom;startArrow=oval;endArrow=block;startSize=8;rounded=0;" edge="1" target="Nc4_Fv2jFnoJjN1I8ZOP-3" parent="1" source="Nc4_Fv2jFnoJjN1I8ZOP-2">
          <mxGeometry relative="1" as="geometry">
            <mxPoint x="292" y="270" as="sourcePoint" />
          </mxGeometry>
        </mxCell>
        <mxCell id="Nc4_Fv2jFnoJjN1I8ZOP-6" value="mq传递新玩法合成请求" style="html=1;verticalAlign=bottom;endArrow=block;rounded=0;" edge="1" parent="1" source="Nc4_Fv2jFnoJjN1I8ZOP-3" target="Nc4_Fv2jFnoJjN1I8ZOP-1">
          <mxGeometry width="80" relative="1" as="geometry">
            <mxPoint x="400" y="330" as="sourcePoint" />
            <mxPoint x="480" y="330" as="targetPoint" />
          </mxGeometry>
        </mxCell>
        <mxCell id="Nc4_Fv2jFnoJjN1I8ZOP-7" value="AI" style="shape=umlLifeline;perimeter=lifelinePerimeter;whiteSpace=wrap;html=1;container=1;collapsible=0;recursiveResize=0;outlineConnect=0;" vertex="1" parent="1">
          <mxGeometry x="690" y="80" width="100" height="540" as="geometry" />
        </mxCell>
        <mxCell id="Nc4_Fv2jFnoJjN1I8ZOP-8" value="" style="html=1;points=[];perimeter=orthogonalPerimeter;" vertex="1" parent="Nc4_Fv2jFnoJjN1I8ZOP-7">
          <mxGeometry x="45" y="260" width="10" height="60" as="geometry" />
        </mxCell>
        <mxCell id="Nc4_Fv2jFnoJjN1I8ZOP-11" value="" style="html=1;points=[];perimeter=orthogonalPerimeter;" vertex="1" parent="Nc4_Fv2jFnoJjN1I8ZOP-7">
          <mxGeometry x="45" y="370" width="10" height="60" as="geometry" />
        </mxCell>
        <mxCell id="Nc4_Fv2jFnoJjN1I8ZOP-9" value="全身风格化" style="html=1;verticalAlign=bottom;endArrow=block;entryX=0;entryY=0;rounded=0;" edge="1" target="Nc4_Fv2jFnoJjN1I8ZOP-8" parent="1" source="Nc4_Fv2jFnoJjN1I8ZOP-5">
          <mxGeometry relative="1" as="geometry">
            <mxPoint x="665" y="320" as="sourcePoint" />
          </mxGeometry>
        </mxCell>
        <mxCell id="Nc4_Fv2jFnoJjN1I8ZOP-10" value="风格化图片" style="html=1;verticalAlign=bottom;endArrow=open;dashed=1;endSize=8;exitX=0;exitY=0.95;rounded=0;" edge="1" source="Nc4_Fv2jFnoJjN1I8ZOP-8" parent="1" target="Nc4_Fv2jFnoJjN1I8ZOP-5">
          <mxGeometry relative="1" as="geometry">
            <mxPoint x="665" y="396" as="targetPoint" />
          </mxGeometry>
        </mxCell>
        <mxCell id="Nc4_Fv2jFnoJjN1I8ZOP-12" value="图片纯色背景替换" style="html=1;verticalAlign=bottom;endArrow=block;entryX=0;entryY=0;rounded=0;" edge="1" target="Nc4_Fv2jFnoJjN1I8ZOP-11" parent="1" source="Nc4_Fv2jFnoJjN1I8ZOP-5">
          <mxGeometry relative="1" as="geometry">
            <mxPoint x="665" y="450" as="sourcePoint" />
          </mxGeometry>
        </mxCell>
        <mxCell id="Nc4_Fv2jFnoJjN1I8ZOP-13" value="图片纯色替换图片" style="html=1;verticalAlign=bottom;endArrow=open;dashed=1;endSize=8;exitX=0;exitY=0.95;rounded=0;" edge="1" source="Nc4_Fv2jFnoJjN1I8ZOP-11" parent="1" target="Nc4_Fv2jFnoJjN1I8ZOP-5">
          <mxGeometry relative="1" as="geometry">
            <mxPoint x="665" y="526" as="targetPoint" />
          </mxGeometry>
        </mxCell>
      </root>
    </mxGraphModel>
  </diagram>
</mxfile>
